<?xml version="1.0" encoding="utf-8"?>
<svg version="1.1"
	 id="svg3290" sodipodi:docname="Chipotle Mexican Grill logo.svg" inkscape:version="0.46" sodipodi:version="0.32" inkscape:output_extension="org.inkscape.output.svg.inkscape" xmlns:inkscape="http://www.inkscape.org/namespaces/inkscape" xmlns:dc="http://purl.org/dc/elements/1.1/" xmlns:cc="http://creativecommons.org/ns#" xmlns:rdf="http://www.w3.org/1999/02/22-rdf-syntax-ns#" xmlns:svg="http://www.w3.org/2000/svg" xmlns:sodipodi="http://sodipodi.sourceforge.net/DTD/sodipodi-0.dtd"
	 xmlns="http://www.w3.org/2000/svg" xmlns:xlink="http://www.w3.org/1999/xlink" x="0px" y="0px" width="68.7px" height="68.7px"
	 viewBox="81 -81.7 168.7 168.7" enable-background="new 81 -81.7 168.7 168.7" xml:space="preserve">
<g id="layer1" transform="translate(-402.08504,-343.01242)" inkscape:groupmode="layer" inkscape:label="Layer 1">
	<path id="path3938" fill="#A81612" d="M646.1,345.2c0,43.7-35.5,79.2-79.2,79.2c-43.7,0-79.2-35.5-79.2-79.2s35.5-79.2,79.2-79.2
		C610.6,266,646.1,301.5,646.1,345.2z"/>
	<path id="path3936" fill="#FFFFFF" d="M614.9,345.2c0,26.5-21.5,48-48,48c-26.5,0-48-21.5-48-48c0-26.5,21.5-48,48-48
		C593.4,297.2,614.9,318.7,614.9,345.2z"/>
	<path id="path3934" fill="#451400" d="M611.4,345.2c0,24.5-19.9,44.4-44.4,44.4c-24.5,0-44.4-19.9-44.4-44.4
		c0-24.5,19.9-44.4,44.4-44.4C591.5,300.7,611.4,320.6,611.4,345.2z"/>
	<path id="text3313" fill="#FFFFFF" d="M517.9,325.1c-0.6,1.2-1.3,2.2-2.3,3c-0.9,0.8-2,1.4-3.1,1.8c-1.1,0.4-2.3,0.6-3.6,0.5
		c-1.2-0.1-2.5-0.4-3.7-0.9l0,0c-1.2-0.5-2.2-1.3-3-2.2c-0.8-0.9-1.5-1.9-1.9-3c-0.4-1.1-0.6-2.3-0.6-3.5c0-1.3,0.4-2.5,1-3.8
		c0.4-0.8,0.8-1.4,1.2-2c0.4-0.6,0.9-1.1,1.3-1.5c0.5-0.4,1-0.8,1.5-1.1c0.5-0.3,1.1-0.5,1.6-0.7l1.6,3.5c-0.9,0.4-1.7,0.8-2.3,1.3
		c-0.6,0.5-1.2,1.2-1.6,2c-0.3,0.7-0.5,1.4-0.5,2.1c0,0.7,0.1,1.4,0.4,2s0.7,1.2,1.2,1.7c0.5,0.5,1.1,0.9,1.8,1.3l0,0
		c0.7,0.3,1.4,0.5,2.2,0.6c0.7,0.1,1.5,0,2.1-0.2c0.7-0.2,1.3-0.5,1.8-1s1-1,1.3-1.7c0.4-0.9,0.6-1.8,0.6-2.6c0-0.8-0.2-1.7-0.5-2.6
		l3.4-1.2c0.3,0.6,0.5,1.3,0.6,1.9c0.1,0.6,0.2,1.3,0.2,1.9c0,0.7-0.1,1.3-0.2,2C518.5,323.5,518.2,324.3,517.9,325.1L517.9,325.1z"
		/>
	<path id="text3318" sodipodi:nodetypes="ccccccccccccc" fill="#FFFFFF" d="M509.8,301.2l2.8-2.9l6.1,6.1l5.8-6l-6.1-6.2l2.5-2.4
		l13,12.8l-2.1,2.6l-4.9-4.6l-5.9,5.7l4.8,4.7l-2.8,2.9L509.8,301.2z"/>
	<path id="text3322" fill="#FFFFFF" d="M531.8,282.4l3-1.6l8.7,16.2l-3,1.6L531.8,282.4z"/>
	<path id="text3327" sodipodi:nodetypes="csccsccccccsssccsssccccc" fill="#FFFFFF" d="M554.8,283.9c1-0.2,1.9-0.6,2.3-1.2
		c0.5-0.6,0.6-1.3,0.4-2.1l0,0c-0.2-0.9-0.6-1.5-1.3-1.8c-0.7-0.3-1.6-0.4-2.7-0.2l-3.2,0.6l1.1,5.4L554.8,283.9z M545.6,276.4
		l7.6-1.4c1.1-0.2,2.1-0.3,3.1-0.1c0.9,0.1,1.9,0.4,2.6,0.8c0.7,0.4,1.3,1,1.8,1.7c0.5,0.7,0.8,1.5,1,2.4l0,0.1c0.2,1,0.2,2,0,2.8
		c-0.2,0.8-0.6,1.6-1.2,2.2c-0.6,0.6-1.4,1.2-2.2,1.6c-0.9,0.4-1.8,0.7-2.9,0.9l-3.7,0.8l1,5.6l-3.5,0.6L545.6,276.4z"/>
	<path id="text3331" fill="#FFFFFF" d="M580,278.1c-0.8-0.2-1.6-0.3-2.3-0.1c-0.7,0.1-1.4,0.4-2,0.8s-1.1,0.9-1.5,1.5
		c-0.4,0.6-0.7,1.3-0.9,2.1l0,0.1c-0.2,0.8-0.2,1.5-0.1,2.3c0.1,0.8,0.4,1.5,0.8,2.1c0.4,0.6,0.9,1.2,1.5,1.7c0.6,0.5,1.3,0.8,2.1,1
		c0.8,0.2,1.6,0.3,2.3,0.1c0.7-0.1,1.4-0.4,2-0.8c0.6-0.4,1.1-0.9,1.5-1.5c0.4-0.6,0.7-1.3,0.9-2.1l0-0.1c0.2-0.8,0.2-1.5,0.1-2.3
		c-0.1-0.8-0.4-1.5-0.8-2.1c-0.4-0.6-0.9-1.2-1.5-1.7C581.6,278.6,580.9,278.3,580,278.1L580,278.1z M580.9,274.4
		c1.4,0.4,2.7,1,3.7,1.8c1.1,0.8,2,1.7,2.6,2.8c0.7,1.1,1.1,2.2,1.4,3.5c0.2,1.3,0.2,2.5-0.1,3.8l0,0.1c-0.3,1.3-0.8,2.4-1.5,3.5
		c-0.7,1-1.6,1.8-2.7,2.5c-1.1,0.6-2.2,1-3.5,1.2c-1.3,0.2-2.7,0.1-4.1-0.3c-1.4-0.4-2.7-1-3.7-1.8c-1.1-0.8-2-1.7-2.6-2.8
		c-0.7-1.1-1.1-2.2-1.4-3.5c-0.2-1.3-0.2-2.5,0.1-3.8l0-0.1c0.3-1.3,0.8-2.4,1.5-3.5c0.7-1,1.6-1.8,2.7-2.5c1.1-0.6,2.2-1,3.5-1.2
		C578.1,273.9,579.5,274,580.9,274.4L580.9,274.4z"/>
	<path id="text3335" sodipodi:nodetypes="ccccccccc" fill="#FFFFFF" d="M601.3,285.4l-5.5-3.2l1.8-2.7l13.3,7.9l-1.8,2.8l-4.6-3
		l-8,12.9l-3.2-1.8L601.3,285.4z"/>
	<path id="text3339" sodipodi:nodetypes="ccccccc" fill="#FFFFFF" d="M618.6,294.3l2.5,2.8l-11.5,9.7l6.4,7.3l-2.9,2.2l-8.3-9.8
		L618.6,294.3z"/>
	<path id="text3343" sodipodi:nodetypes="ccccccccccccc" fill="#FFFFFF" d="M632.5,313.5l4.9,12.6l-3,1.1l-3.7-9.2l-4.8,1.9l2.8,7.3
		l-3.2,1.1l-2.8-7.3l-3.2,1.3l4,9.5l-3.2,1.1l-5-12.9L632.5,313.5z"/>

		<path id="path3349" sodipodi:type="arc" sodipodi:ry="15.390038" sodipodi:rx="15.390038" sodipodi:cx="45.26482" sodipodi:cy="398.73819" fill="#FFFFFF" d="
		M505.8,346.1c0,1-0.8,1.9-1.9,1.9c-1,0-1.9-0.8-1.9-1.9c0,0,0,0,0,0c0-1,0.8-1.9,1.9-1.9C504.9,344.3,505.8,345.1,505.8,346.1
		C505.8,346.1,505.8,346.1,505.8,346.1z"/>

		<path id="path3351" sodipodi:type="arc" sodipodi:ry="15.390038" sodipodi:rx="15.390038" sodipodi:cx="45.26482" sodipodi:cy="398.73819" fill="#FFFFFF" d="
		M632.6,346.1c0,1-0.8,1.9-1.9,1.9s-1.9-0.8-1.9-1.9c0,0,0,0,0,0c0-1,0.8-1.9,1.9-1.9C631.8,344.3,632.6,345.1,632.6,346.1
		C632.6,346.1,632.6,346.1,632.6,346.1z"/>
	<path id="text3353" fill="#FFFFFF" d="M511.8,360.8l0.8,2.3l-3.1,4l5,1l0.8,2.3l-9.6,3.6l-0.8-2.1l6.2-2.3l-5.1-1.2l0-0.1l3-4.2
		l-6.2,2.3l-0.8-2.1L511.8,360.8z"/>
	<path id="text3357" fill="#FFFFFF" d="M517.9,375l4.3,6.4l-1.7,1.1l-3.1-4.5l-1.7,1.2l2.7,4l-1.7,1.1l-2.7-4l-1.8,1.2l3.1,4.6
		l-1.7,1.1l-4.4-6.4L517.9,375z"/>
	<path id="text3361" fill="#FFFFFF" d="M524.2,390.7l0.9-6l1.9,1.8l-0.6,3.9l3.8-1l1.9,1.7l-5.9,1.4l-0.9,6.3l-1.9-1.8l0.7-4.1
		l-4.1,1l-1.9-1.7L524.2,390.7z"/>
	<path id="text3365" fill="#FFFFFF" d="M536.3,394.2l1.9,1.2l-5.4,8.7l-1.9-1.2L536.3,394.2z"/>
	<path id="text3369" fill="#FFFFFF" d="M544.2,409.5c-0.7-0.2-1.3-0.6-1.8-1.1c-0.5-0.5-0.9-1-1.2-1.6c-0.3-0.6-0.4-1.2-0.5-1.9
		c0-0.7,0.1-1.4,0.3-2.1l0,0c0.2-0.7,0.6-1.3,1-1.8c0.5-0.5,1-0.9,1.6-1.2c0.6-0.3,1.3-0.5,2-0.5c0.7,0,1.4,0.1,2.2,0.3
		c0.4,0.2,0.8,0.3,1.2,0.5c0.3,0.2,0.6,0.4,0.9,0.7c0.3,0.2,0.5,0.5,0.7,0.8c0.2,0.3,0.4,0.6,0.5,0.9l-1.9,1.1
		c-0.3-0.5-0.5-0.9-0.9-1.2c-0.3-0.3-0.7-0.6-1.2-0.7c-0.4-0.1-0.8-0.2-1.2-0.2c-0.4,0-0.8,0.1-1.1,0.3c-0.3,0.2-0.6,0.4-0.9,0.8
		s-0.5,0.7-0.6,1.1l0,0c-0.1,0.4-0.2,0.8-0.2,1.2c0,0.4,0.1,0.8,0.2,1.2c0.1,0.4,0.4,0.7,0.7,1c0.3,0.3,0.6,0.5,1.1,0.6
		c0.6,0.2,1.1,0.3,1.5,0.2c0.5-0.1,0.9-0.2,1.4-0.4l0.9,1.8c-0.3,0.2-0.7,0.3-1,0.4c-0.3,0.1-0.7,0.2-1.1,0.2c-0.4,0-0.8,0-1.2,0
		C545.1,409.8,544.7,409.7,544.2,409.5L544.2,409.5z"/>
	<path id="text3373" fill="#FFFFFF" d="M561.4,408.8l-1-3.4l-1.7,3.1L561.4,408.8z M559.7,402.5l2.1,0.2l3.1,10.7l-2.3-0.3l-0.7-2.4
		l-4.3-0.5l-1.2,2.2l-2.3-0.3L559.7,402.5z"/>
	<path id="text3377" fill="#FFFFFF" d="M570.6,403.2l2.1-0.2l5.4,5.8l-0.6-6.3l2.2-0.2l1,10.2l-1.9,0.2l-5.6-6l0.6,6.5l-2.2,0.2
		L570.6,403.2z"/>
	<path id="text3381" fill="#FFFFFF" d="M596.6,407.4c-0.7,0.3-1.4,0.5-2.2,0.5c-0.7,0-1.4-0.1-2-0.3c-0.6-0.2-1.2-0.6-1.7-1.1
		c-0.5-0.5-0.9-1.1-1.2-1.8l0,0c-0.3-0.7-0.5-1.3-0.5-2c0-0.7,0.1-1.4,0.3-2c0.2-0.6,0.6-1.2,1.1-1.7c0.5-0.5,1.1-0.9,1.8-1.3
		c0.4-0.2,0.8-0.3,1.2-0.4c0.4-0.1,0.7-0.2,1.1-0.2c0.3,0,0.7,0,1,0c0.3,0,0.7,0.1,1,0.2l-0.6,2.1c-0.2-0.1-0.5-0.1-0.7-0.2
		s-0.5-0.1-0.7,0c-0.2,0-0.5,0-0.7,0.1c-0.2,0.1-0.5,0.1-0.8,0.3c-0.4,0.2-0.7,0.4-0.9,0.7c-0.3,0.3-0.4,0.6-0.6,1
		c-0.1,0.4-0.2,0.8-0.2,1.2c0,0.4,0.1,0.8,0.3,1.2l0,0c0.2,0.4,0.4,0.8,0.7,1.1c0.3,0.3,0.6,0.5,1,0.7c0.4,0.2,0.8,0.2,1.2,0.2
		c0.4,0,0.8-0.1,1.2-0.3c0.8-0.3,1.3-0.8,1.7-1.4l-0.6-1.3l-2.1,0.9l-0.8-1.8l4-1.8l1.8,4c-0.3,0.6-0.7,1.2-1.2,1.8
		C598.1,406.5,597.4,407,596.6,407.4L596.6,407.4z"/>
	<path id="text3385" fill="#FFFFFF" d="M607.2,394.4c0.4-0.3,0.7-0.7,0.8-1.1c0.1-0.4,0-0.8-0.3-1.1l0,0c-0.3-0.4-0.6-0.6-1-0.6
		c-0.4,0-0.8,0.2-1.2,0.5l-1.8,1.4l1.8,2.3L607.2,394.4z M600.6,393.3l3.7-2.9c1-0.8,2-1.1,3-1c0.8,0.1,1.5,0.5,2.1,1.3l0,0
		c0.5,0.7,0.8,1.3,0.8,2c0,0.7-0.2,1.3-0.5,1.9l4.2,1.3l-2.1,1.6l-3.7-1.2l0,0l-1.4,1.1l2,2.6l-1.8,1.4L600.6,393.3z"/>
	<path id="text3389" fill="#FFFFFF" d="M611,384.3l1.5-1.7l7.7,6.7l-1.5,1.7L611,384.3z"/>
	<path id="text3393" fill="#FFFFFF" d="M616,377.9l1.1-1.9l7,4.1l2.6-4.4l1.8,1l-3.7,6.3L616,377.9z"/>
	<path id="text3397" fill="#FFFFFF" d="M621.5,367.2l0.7-2.1l7.8,2.6l1.6-4.8l1.9,0.6l-2.3,7L621.5,367.2z"/>

		<path id="path3419" sodipodi:nodetypes="cssccssssscccccsccssscscssssccsscccsssssssccsscccccssssssssssccccccccccssssssssccscsccc" fill="#FFFFFF" d="
		M557.6,363.7c0-0.4-0.5-1.6-0.9-2c-0.3-0.3-0.7-0.9-0.9-1.5c-0.4-0.8-1-1.4-1.4-2.3c-0.4-1.5-1.1-3.3-1.9-5c-0.1-1-0.5-2-0.6-2.9
		c-0.1-0.7-0.1-1.3-0.1-2c0-0.7,0.1-1.4,0.1-2.1c0-0.9,0-1.9,0-2.8c0-0.9,0.4-1.6,0.4-2.5c0-0.6,1-1.4,1.3-1.9
		c2.5-0.5,4.5-1.3,7.1-1.6c3.5,0.1,3.7,0.4,5.4,0.6c1.6,0.3,2.4,1.3,3.6,2.1c0.6,0.3-0.3,1.3-0.4,1.9c-0.1,0.5-0.4,1-0.6,1.4
		c-0.7,1.5-1.7,2.7-2.1,4.3c-0.6,1.4-0.9,1.7-1.6,3.4c-0.2,0.5-0.5,1.3-0.7,1.7c-0.3,0.5-0.1,2.6,0,3.2c0.2,0.7,0.1,1.5,0.4,2.2
		c0.1,0.2,0.1,0.4,0.2,0.6c0.1,0.5,0.3,1,0.4,1.6c0.5,1.9,1.2,3.5,1.9,5c0.5,1.1,1.1,1.5-0.2,1.1c-0.6-0.1-0.5-0.3-0.8-0.6
		c-0.3-0.3-0.7-0.5-1.1-0.8c-0.4-0.3-0.6-0.7-0.9-1c-0.6-0.6-0.8-1.3-1.5-2c-0.4-2-2-4.1-3-6.3c-0.4-0.8-1-1.5-1.4-2.3
		c-0.3-0.6-0.7-1-0.8-1.6c-0.2-0.9-0.1-2.1-0.1-3.1c-0.2-1.6-0.3-2.8,0.2-4.3c0.1-2.1,1.7-1.7,3.1-1.6c0.9,0,1.4-0.1,2,0.4
		c1.4,1.1,0.7,0.9,0.7,2.5c0,0.7-0.1,1.5-0.5,2.1c-0.4,0.7-0.7,1.6-1.1,2.4c-0.1,0.1-0.1-1.2-0.1-1.5c0-0.8-0.7-1.3-1.3-1.1
		c-0.9,0.2-1,0.6-1.4,1.6c-0.2,0.6,0.2,1.6,0.3,2.2c0.3,1.5,1.4,2.6,2.8,2c0.4-0.4,0.8-1,0.8-1.6c0-0.7,0.5-1.5,0.7-2.2
		c0.3-0.8,0.7-1.8,1.1-2.5c0.5-1.3,1.3-2.6,0.5-4.3c-0.5-1.3-1.1-2.2-2.4-2.6c-0.5-0.1-2.2-0.1-2.7,0c-1.6,0-3,0.6-4.6,0.9
		c-0.5,0.1-0.5,0.8-0.6,1.4c-0.2,0.7-0.2,1.5-0.4,2.3c-0.2,0.9,0.1,2.2-0.2,3c-0.3,0.7-0.2,2.2,0.1,2.9c0.4,0.8,0.6,1.8,1.1,2.6
		c1,1.4,1.3,2.9,2.3,4.2c0.7,0.9,0.9,1.6,1.4,2.6c0.1,0.1,0.1,0.3,0.2,0.4c0.5,1.1,1.7,2.4,2.3,3.5c0.4,0.8,1.2,1.7,1.8,2.1
		c0.6,0.5,1.2,1.1,1.7,1.8c3.3,2.1,5.6,2.5,6.8,1.5c0.6-0.6-0.6-1.4-0.8-1.6c-1-0.9-1.7-2.3-2.2-3.9c-0.3-1.1-0.8-2.2-1.4-3.2
		c-0.5-1.6-1.1-3.3-1.1-5c0-0.9-0.1-1.6,0.1-2.5c0.2-2.1,2.2-3.9,2.5-5.5c0.5-0.7,0.8-1.2,1-2c1.5-1.3,2.7-3.6,3.4-5.6
		c0.1-0.6-0.8-1.3-1-1.7c-0.2-0.4-1-1-1.5-1.5c-0.4-0.4-0.5-1-0.9-1.4c-0.4-0.4-1.2-1-1.7-0.7c-0.6,0.3-0.7,0.9-1.5,0.9
		c-0.6,0-1.2,0-1.8,0c-1,0-2.1-0.3-3-0.5c-0.7-0.1-2.1-0.5-2.7-0.8c-0.5-0.3-1.4,0-2.1,0.1c-3.5,0.8-7.1-0.6-7.3,3.6
		c-0.3,1.8-0.8,3.3-0.9,5.1c-0.1,2.4,0,4.9,0,7.3c0,0.9,0.2,1.8,0.5,2.6c0.5,1.1,1.2,2.2,1.7,3.3c1.9,2.8,3.5,4.8,5.1,6.6
		C557,363.6,556.6,362.6,557.6,363.7z"/>
	<path id="path3930" sodipodi:nodetypes="cccccssssccssssssssssssssssssscccccccsccccsssssssssscccccccc" fill="#FFFFFF" d="
		M562.4,330l-5-4.1c-0.2,0-0.4,0.1-0.6,0.1c-1.8,0.4-5.2,0.1-6.6,1.1c-2.4,1.4-4,3.8-5.7,5.5c-0.6,0.3-0.3,1.6-0.6,2.2
		c-0.4,1-0.3,2.2-0.8,3.3c-0.5,1.2-0.4,2.9-0.4,4.2c0,1.9,0.1,3.8,0.1,5.7c0,1.4,0.3,3.9,0.7,5.2c0,3.6,8.2,12,12.8,20.1
		c0.7,1.3,1.1,1.3,2.3,1.5c0.3,0,0.5,0.1,0.8,0.1c1.7,0.2,2.6,1.2,4.3,1.2c0.9,0,1.8,0.5,2.6,0.7c0.9,0.2,2.2,0.1,3.1,0.1
		c1.5,0,3-0.1,4.5-0.1c0.8,0,1.6,0.2,2.3,0c0.7-0.2,1.7,0,2.4,0c0.7,0,1.7-0.3,2.5-0.3c0.5,0,1.5-1.3,2-1.5c1.2-0.5,1.8-1.8,2.4-2.9
		c0.5-0.8,0.9-1.6,1.1-2.4c0.2-0.9,0-1.7-0.9-1.9c-0.8-0.2-0.9-0.6-1.7-0.8c-0.8-0.2-1.2-0.2-1.8-0.7c-1-0.7-2.2-1.5-3.2-2.3
		c-1-0.8-2.1-1.5-3.3-2.1c-0.8-0.4-0.8-0.8-1.5-0.7c-0.7,0.1-1.1-1.7-0.8-3.1c0.2-1-0.2-1.2-0.6-2c-0.7-1.8-1.6-0.8,0.2-2.4
		c1.2-0.9,2.1-3.3,2.9-4.5c1.2-1.8,2.8-3.8,2.9-5.6c0.6-1,1.3-3.2,1-4.3c-0.1-1.3-1.5-3.7-2.6-5.8c-1.9-1.1-2.1-4.5-4-5.3
		c-0.5-0.1-1.2,0-1.5,0.1c-0.5,0.1-1.2,1.8-1.7,1.8c1.7,1.8,3,3.8,4.3,5.6c1,2,2.1,3.2,2,5.5c-0.3,3-2.4,6-3.2,7.3
		c-0.1,0.2-1.2,1.7-1.3,1.9c-0.4,0.9-0.6,0.8-0.9,1.4c-0.3,0.6-0.8,1.3-1.1,1.9c-0.3,0.6,0,2.5,0.1,3.2c0.2,1,1,0.8,1.2,1.8
		c0.2,0.8,0,1.9,0,2.8c0,0.7,0.1,2,0.1,2.8c0,0.7,1.1,0.2,1.7,0.3c1,0.2,1.2,1.4,2.4,1.9c1.1,0.4,3.2,2.3,4.1,3
		c0.9,0.7,0.1-0.4-0.2,0.8c-3.1,2.2-7.1,2.5-10.9,2.2c-7.5-0.6-8,0.1-10.9-3.3c-3.7-5.1-7.5-10-11.1-15.9c-0.1-3.7,0-8.1,0.2-11.9
		c0-2.1,0.6-2.5,0.6-4.6c0.5-3,3.1-4.8,5.4-5.6C555.8,330.1,559.1,330,562.4,330z"/>
	<path id="path3932" sodipodi:nodetypes="ccsccccccccsscccccccccssssscscssssscc" fill="#FFFFFF" d="M555.5,324.5
		c-1.2-0.6-2.7-0.4-4-0.2c-0.4-0.1,1.1-0.8,1.4-1.1c0.5-0.6,1.4-0.8,2.1-1.2c1.1,0.1,2.8,0.7,3.9,1.1c1,0.3,2.4,0.7,3.5,0.7
		c3.8-3.5,8.3-7.1,12.7-10.4c0.7-0.3,6.6-1.1,8.2-1.1c1.1,0.5,2.3,0.1,3,1.1c1.1,1.6,3.7,3.8,3.3,5.1c0,1.6-0.5,3.2-0.9,4.8
		c0,0-2.4,0.2-2.5,0.2c-0.5,0-1.1,0-1.6,0c-0.7,0-0.9-0.1-1-0.3c1-0.7,1.7-1.3,2.6-2.4c0.3-0.3-0.1-1.1-0.2-1.4
		c-0.5-1.3-1.3-2.3-1.7-3.6c-1.9,0.1-4.4,0-6.2,0.5c-0.7,0.3-1.3,0.5-1.9,1c-1.1,1.2-1.4,1.2-3.1,3c0.2,1.7-0.8,3.2-0.6,5
		c0.9,1.9,0.5,1.4,3.5,1.7c0.6,0.1,1.4-0.1,1.7,0.1c0.1,0.1,0.2,0.2,0.1,0.3c-0.1,0.2-0.1,1.2-0.9,1.6c-0.8,0.4-2.7,0.7-3.5,0.8
		c-0.1,0-0.3,0.1-0.4,0.1c-0.6,0.1-0.9,0.2-1.4,0.3c-1.7,0.2-2.3,1.4-3.3,2.1c-0.7,0.5-2.2,0.4-3.3,0.3c-0.7,0-0.8-0.1-1.3-0.3
		c-0.3-0.2-0.4-0.8-0.5-1.2c-0.1-0.3-0.9-0.9-1.1-1.2c-0.4-0.4-0.8-0.4-1.2-0.8c-0.6-0.6-1-0.9-1.6-1.4c-0.4-0.3-0.5-0.6-0.9-1
		C557.1,325.6,556.7,325,555.5,324.5z"/>
</g>
</svg>
